<?xml version="1.0" encoding="UTF-8"?>
<svg version="1.1" xmlns="http://www.w3.org/2000/svg" width="500" height="500">
<path d="M0 0 C165 0 330 0 500 0 C500 165 500 330 500 500 C335 500 170 500 0 500 C0 335 0 170 0 0 Z " fill="#738438" transform="translate(0,0)"/>
<path d="M0 0 C25.65227591 21.60571971 39.05467342 59.14654506 49.69140625 89.86328125 C51.08888985 93.88018366 52.57544394 97.8603504 54.0859375 101.8359375 C57.41342835 110.59450536 60.66564982 119.37181885 63.7734375 128.2109375 C64.05864258 129.01821289 64.34384766 129.82548828 64.63769531 130.65722656 C66.06639456 134.7461471 67.39628395 138.84053 68.60546875 143 C69.81142942 147.09739874 71.36742231 150.92230557 73.0859375 154.8359375 C73.92276866 157.28609518 74.7349922 159.74478401 75.5234375 162.2109375 C77.138259 167.17643759 78.9175405 171.96359171 81.13671875 176.69140625 C82.18340965 179.05615236 83.00518615 181.44971626 83.8359375 183.8984375 C86.32349816 190.88123574 89.69946921 197.39526687 93.11181641 203.96142578 C93.98027318 205.63260651 94.83668543 207.3100338 95.69140625 208.98828125 C100.59870518 218.3687213 106.84849652 228.64117378 117.0859375 232.8359375 C119.7349678 233.15132647 119.7349678 233.15132647 122.5234375 233.0859375 C123.45027344 233.09109375 124.37710937 233.09625 125.33203125 233.1015625 C128.24647926 232.82045262 130.43484247 232.04841653 133.0859375 230.8359375 C134.14686484 232.74201035 135.18413851 234.66126496 136.2109375 236.5859375 C136.79101562 237.65328125 137.37109375 238.720625 137.96875 239.8203125 C139.0859375 242.8359375 139.0859375 242.8359375 138.40185547 244.82568359 C136.88863721 247.13734207 135.38113327 248.39207565 133.1484375 250.015625 C132.345271 250.60738525 131.54210449 251.19914551 130.71459961 251.80883789 C129.84714111 252.43653076 128.97968262 253.06422363 128.0859375 253.7109375 C126.25282922 255.05973538 124.42081948 256.41002737 122.58984375 257.76171875 C121.66445801 258.44314941 120.73907227 259.12458008 119.78564453 259.82666016 C115.81211999 262.7839858 111.91679786 265.83682071 108.0234375 268.8984375 C99.55613969 275.53313378 90.92211836 281.92877473 82.22338867 288.25610352 C80.76146687 289.33663989 79.31418694 290.43719397 77.88012695 291.55444336 C77.17847412 292.09979736 76.47682129 292.64515137 75.75390625 293.20703125 C75.13281982 293.69872803 74.5117334 294.1904248 73.87182617 294.69702148 C70.84776102 296.62556064 68.54073076 296.40126731 65.0859375 295.8359375 C52.48183974 291.94012546 44.02798288 279.89366414 38.0234375 268.7734375 C34.11175488 261.31348389 30.94342019 253.56973176 27.85009766 245.74316406 C26.81061454 243.14877362 25.69512961 240.58867007 24.5859375 238.0234375 C19.7869539 226.55037076 15.99276793 214.63626863 12.0859375 202.8359375 C10.33508416 204.89771824 8.58523369 206.96033627 6.8359375 209.0234375 C6.34480469 209.60158203 5.85367188 210.17972656 5.34765625 210.77539062 C4.86425781 211.34580078 4.38085938 211.91621094 3.8828125 212.50390625 C3.44291992 213.02235107 3.00302734 213.5407959 2.54980469 214.07495117 C0.94344085 215.88516341 0.94344085 215.88516341 -0.32617188 218.5 C-4.61285499 222.36933811 -9.54639422 221.56184616 -15.1171875 221.54296875 C-16.90657745 221.56565071 -16.90657745 221.56565071 -18.7321167 221.58879089 C-22.54295584 221.6317847 -26.35300464 221.6405178 -30.1640625 221.6484375 C-32.74741702 221.6715725 -35.33075261 221.69693573 -37.9140625 221.72460938 C-44.24740323 221.78757748 -50.58043365 221.8224188 -56.9140625 221.8359375 C-57.39449197 223.26151126 -57.8735552 224.6875455 -58.35205078 226.11376953 C-58.61897736 226.9078421 -58.88590393 227.70191467 -59.16091919 228.52005005 C-60.14810551 231.555611 -60.9689602 234.62648195 -61.7890625 237.7109375 C-63.60087077 244.09344391 -65.87348225 249.94313154 -68.9140625 255.8359375 C-69.52314453 257.02896484 -69.52314453 257.02896484 -70.14453125 258.24609375 C-79.83193924 275.71751872 -96.38200009 290.65475423 -111.9140625 302.8359375 C-113.03199585 303.75271673 -114.14776449 304.67213998 -115.26171875 305.59375 C-123.69341564 312.52752276 -132.4748019 318.76768786 -141.52734375 324.86328125 C-145.87878276 327.79478675 -150.11345025 330.86671636 -154.3359375 333.98046875 C-159.09869752 337.40821271 -164.00855622 340.61696654 -168.9140625 343.8359375 C-172.36602017 342.4101289 -174.0154881 340.73847416 -176.1640625 337.7109375 C-176.68484375 336.98648437 -177.205625 336.26203125 -177.7421875 335.515625 C-178.12890625 334.96132813 -178.515625 334.40703125 -178.9140625 333.8359375 C-177.58272035 330.81119656 -176.21352632 328.96168027 -173.68359375 326.84765625 C-172.72549805 326.03458008 -172.72549805 326.03458008 -171.74804688 325.20507812 C-171.08095703 324.65013672 -170.41386719 324.09519531 -169.7265625 323.5234375 C-143.90474571 301.86394342 -127.75280308 272.6634557 -121.32788086 239.62573242 C-120.9140625 237.8359375 -120.9140625 237.8359375 -119.9140625 235.8359375 C-119.58355552 233.63473119 -119.30373076 231.42585465 -119.046875 229.21484375 C-118.96770844 228.53592072 -118.88854187 227.85699768 -118.80697632 227.15750122 C-118.54646973 224.9049751 -118.29251962 222.65176698 -118.0390625 220.3984375 C-117.95035889 219.62384186 -117.86165527 218.84924622 -117.77026367 218.05117798 C-116.50291681 206.96146666 -115.46652711 195.86915426 -114.59011841 184.74230957 C-112.11395965 153.53472576 -106.90599741 127.04799446 -85.9140625 102.8359375 C-85.23988281 102.02898437 -84.56570312 101.22203125 -83.87109375 100.390625 C-73.44866756 88.27858873 -60.58470734 79.21001831 -47.5871582 70.08178711 C-45.78180518 68.80023141 -45.78180518 68.80023141 -43.9140625 66.8359375 C-55.34150354 58.05425867 -64.11932071 51.7283694 -79.0390625 51.5859375 C-80.06084595 51.57191895 -80.06084595 51.57191895 -81.10327148 51.55761719 C-85.43130606 51.58500648 -88.88231688 52.31181112 -92.9140625 53.8359375 C-94.1309375 54.1040625 -95.3478125 54.3721875 -96.6015625 54.6484375 C-105.10424018 56.73369495 -112.84118722 61.22456477 -120.40625 65.50390625 C-122.85913928 66.80676489 -125.31808694 67.85430517 -127.9140625 68.8359375 C-129.14163145 67.09937655 -130.34563103 65.34613373 -131.5390625 63.5859375 C-132.21195313 62.61140625 -132.88484375 61.636875 -133.578125 60.6328125 C-134.01898438 59.70984375 -134.45984375 58.786875 -134.9140625 57.8359375 C-133.7688095 54.6869842 -131.94709365 52.61229946 -129.60546875 50.26171875 C-128.94675781 49.59889893 -128.28804687 48.9360791 -127.609375 48.25317383 C-126.55363281 47.21132935 -126.55363281 47.21132935 -125.4765625 46.1484375 C-124.75082031 45.42873779 -124.02507812 44.70903809 -123.27734375 43.9675293 C-118.63754724 39.41256949 -113.90727142 35.09787534 -108.78125 31.08984375 C-106.61418771 29.38630841 -104.51352132 27.65523405 -102.421875 25.86328125 C-75.86001092 3.30052724 -33.14771276 -24.61639795 0 0 Z " fill="#FEFEFD" transform="translate(269.9140625,81.1640625)"/>
<path d="M0 0 C4.59678701 3.75226102 6.64898828 8.81294904 9.125 14.0625 C9.60074463 15.06313477 10.07648926 16.06376953 10.56665039 17.09472656 C15.69648723 28.12637833 19.85598452 39.49857004 23.91796875 50.95776367 C24.97807209 53.93834754 26.06242023 56.90911695 27.15234375 59.87890625 C28.57614234 63.78807974 29.91192338 67.70677379 31.125 71.6875 C31.43695313 72.70199219 31.74890625 73.71648437 32.0703125 74.76171875 C33.1385796 78.48269955 34.06107406 82.24429623 35 86 C17.18 86 -0.64 86 -19 86 C-19 77.76543942 -18.21965105 70.26611837 -16.9375 62.1875 C-16.82840302 61.49213135 -16.71930603 60.7967627 -16.60690308 60.08032227 C-8.41158355 8.41158355 -8.41158355 8.41158355 0 0 Z " fill="#BCD172" transform="translate(238,166)"/>
</svg>
